<?xml version="1.0" encoding="UTF-8"?>
<svg xmlns="http://www.w3.org/2000/svg" viewBox="0 0 512 512" width="512" height="512" role="img" aria-label="NexiForma">
  <defs>
    <linearGradient id="nf-dark" x1="4%" y1="96%" x2="96%" y2="8%">
      <stop offset="0%" stop-color="#1E1B4B"/>
      <stop offset="45%" stop-color="#4338CA"/>
      <stop offset="100%" stop-color="#6D28D9"/>
    </linearGradient>
    <linearGradient id="nf-mid" x1="10%" y1="90%" x2="90%" y2="10%">
      <stop offset="0%" stop-color="#5B21B6" stop-opacity="0.85"/>
      <stop offset="100%" stop-color="#7C3AED" stop-opacity="0.75"/>
    </linearGradient>
    <linearGradient id="nf-light" x1="8%" y1="88%" x2="92%" y2="8%">
      <stop offset="0%" stop-color="#A78BFA" stop-opacity="0.9"/>
      <stop offset="55%" stop-color="#DDD6FE"/>
      <stop offset="100%" stop-color="#EDE9FE" stop-opacity="0.95"/>
    </linearGradient>
    <linearGradient id="nf-energy" x1="0%" y1="100%" x2="100%" y2="0%">
      <stop offset="0%" stop-color="#BE185D" stop-opacity="0.15"/>
      <stop offset="55%" stop-color="#F472B6" stop-opacity="0.85"/>
      <stop offset="100%" stop-color="#FDF2F8" stop-opacity="1"/>
    </linearGradient>
    <filter id="nf-trail-glow" x="-60%" y="-60%" width="220%" height="220%">
      <feGaussianBlur stdDeviation="5" result="b"/>
      <feMerge><feMergeNode in="b"/><feMergeNode in="SourceGraphic"/></feMerge>
    </filter>
    <filter id="nf-glow" x="-50%" y="-50%" width="200%" height="200%">
      <feGaussianBlur stdDeviation="2.2" result="b"/>
      <feMerge><feMergeNode in="b"/><feMergeNode in="SourceGraphic"/></feMerge>
    </filter></defs>
  <g transform="translate(40.96 102.96) scale(0.4335)">
    <path d="M 980.5 0 L 989.5 0 L 990 1.5 L 986 9.5 L 986 11.5 L 985 13.5 L 985 15.5 L 982 27.5 L 978 35.5 L 978 37.5 L 975 48.5 L 971 56.5 L 971 58.5 L 968 70.5 L 966 72.5 L 967 73.5 L 965 75.5 L 965 79.5 L 961 94 L 959 94.5 L 960 97.5 L 956 109 L 948.5 111 L 946.5 111 L 943.5 112 L 941.5 111 L 937.5 113 L 935.5 112 L 933.5 114 L 921.5 115 L 914.5 117 L 912.5 117 L 880.5 125 L 875.5 128 L 862.5 131 L 830.5 144 L 798.5 160 L 753 189.5 Q 753.8 191.8 751.5 191 Q 731.6 204.1 715 220.5 Q 715.8 222.8 713.5 222 L 690 244.5 L 676 259.5 L 658 283 Q 655.3 281.9 656 284.5 L 625 330.5 L 603 369.5 L 580 418.5 L 565 455.5 L 543 521.5 L 536 535.5 L 526.5 546 Q 520 551.5 507.5 551 Q 494.8 548.8 489 539.5 L 390 358.5 L 349 279.5 Q 341.9 267.1 331.5 258 L 316.5 250 L 311.5 249 L 295.5 249 L 287.5 251 L 267.5 261 L 235.5 280 Q 200.5 302.5 171 330.5 L 167.5 335 L 164 336 L 158.5 343 Q 156.3 342.3 157 344.5 L 128 374.5 L 95.5 414 L 95 408.5 L 104 386.5 L 126 319.5 L 135 296.5 L 146 260.5 L 153 243.5 L 162 226.5 L 179 201.5 L 199.5 180 L 219.5 164 L 251.5 147 L 283.5 138 L 312.5 136 L 313.5 137 L 325.5 137 L 336.5 139 L 361.5 147 Q 391.7 160.8 412 184.5 Q 426.1 200.9 437 220.5 L 500.5 339 Q 504.5 339.5 505 336.5 L 509 326.5 L 532 286.5 L 562 240.5 Q 598 190.5 642.5 149 L 674.5 121 L 719.5 89 L 762.5 64 L 807.5 43 L 868.5 21 L 899.5 13 L 905.5 13 L 940.5 5 L 955.5 4 L 964.5 2 L 976.5 2 L 980.5 0 Z " fill="url(#nf-dark)" class="nf-fill"/>
      <path d="M 898.5 253 Q 908.6 250.9 912 255.5 L 907 273.5 L 905 276.5 L 899 296.5 L 896 301.5 L 896 305.5 L 894 307.5 L 894 309.5 Q 893.3 318.3 889 323.5 L 889 325.5 L 885 342.5 L 877.5 362 L 874.5 364 L 850.5 364 L 848.5 365 L 846.5 365 L 834.5 366 L 816.5 371 L 793.5 381 L 775 392 Q 776.1 394.7 773.5 394 L 770 396 L 768.5 399 L 757 408.5 L 751.5 416 Q 749.3 415.3 750 417.5 L 749 420 Q 746.3 418.9 747 421.5 L 737.5 436 Q 735.3 435.3 736 437.5 Q 733.7 446.7 728 452.5 L 724 466 Q 721.3 464.9 722 467.5 L 721 470.5 L 717 484 Q 714.3 482.9 715 485.5 L 715 487.5 Q 716.1 490.8 713.5 490 L 714 491.5 L 710 504 L 708 504.5 L 709 506.5 L 703 524 L 701 524.5 L 701 526.5 L 696 542 L 694 542.5 L 695 544.5 L 690 559 Q 687.3 557.9 688 560.5 L 683 572.5 L 684 575.5 L 681.5 581 L 680.5 579 L 680 581.5 L 681 583.5 L 675.5 594 L 674.5 592 L 672 597.5 L 674 597.5 L 666.5 610 L 665 609.5 L 666 611.5 L 661.5 618 Q 660.2 615.8 659 618.5 L 660 620.5 L 658 620.5 L 657 622.5 Q 659.5 624 656 625.5 L 654.5 628 L 653 627.5 L 651 630.5 Q 653.5 632 650 633.5 L 647.5 637 Q 646.3 634.8 645 637.5 L 644 639.5 L 645 640.5 L 640.5 645 Q 638.8 642.3 637 646.5 L 638 647.5 L 634.5 651 Q 632.8 648.2 631 652.5 L 632 653.5 L 624.5 661 L 619.5 665 L 617.5 664 L 615.5 668 L 611.5 671 L 609.5 670 L 608.5 673 L 606.5 672 L 605.5 675 L 603.5 674 L 603.5 676 L 601.5 676 L 593 680.5 L 593.5 682 L 591.5 681 L 591.5 683 L 589.5 682 L 589.5 684 L 587.5 683 L 579 687.5 L 579.5 689 L 577.5 688 L 577.5 690 L 575.5 689 L 575.5 691 L 572.5 690 L 557 695.5 L 557.5 697 L 554.5 696 L 546.5 699 L 532 701 L 531.5 703 L 530.5 702 L 517.5 702 L 516.5 703 L 495.5 703 L 494.5 702 L 483.5 702 L 478.5 703 L 478.5 702 L 481 701.5 L 476.5 701 L 473.5 702 L 473.5 701 L 475 700.5 L 463.5 698 L 462 698.5 L 462.5 697 L 458.5 698 L 458.5 696 L 454.5 697 L 452 695.5 L 452.5 694 L 449.5 695 L 449.5 694 L 451 693.5 L 443.5 691 L 442 691.5 L 442.5 690 L 440.5 691 L 440.5 689 L 435.5 687 L 434 687.5 L 434.5 686 L 429.5 684 L 428 684.5 L 428.5 683 L 426.5 684 L 426.5 682 L 424.5 683 L 422.5 679 L 416.5 676 L 415 676.5 Q 417.2 675.3 414.5 674 L 412.5 675 L 411.5 672 L 408.5 670 L 407 670.5 Q 409.3 669.3 406.5 668 L 405 668.5 L 405.5 670 L 401.5 664 L 399.5 663 L 398.5 664 L 394 659.5 L 395 658.5 L 383.5 647 L 382.5 648 L 378 643.5 L 379 641.5 Q 376.5 643.3 374 638.5 L 375 636.5 L 370 633.5 L 371 631.5 L 367.5 627 Q 366.3 629.3 365 626.5 L 366 624.5 L 363 623.5 L 365 623.5 L 360.5 617 L 359 617.5 L 360 615.5 L 358 615.5 L 359 613.5 L 356 612.5 L 358 612.5 L 356.5 610 L 355 610.5 L 356 608.5 L 354.5 606 Q 353.3 608.3 352 605.5 L 351 603.5 L 352 601.5 L 350 601.5 L 351 599.5 L 349 599.5 L 350 597.5 L 347.5 593 Q 346.3 595.3 345 592.5 L 344 589.5 L 345 587.5 L 340.5 580 L 339 580.5 L 340 578.5 L 338 578.5 L 339 576.5 L 337 576.5 L 338 574.5 L 333.5 567 L 332 567.5 L 332 565.5 L 326 551.5 L 323 548.5 L 275 458.5 L 264.5 442 L 264 444 L 261.5 443 L 260 444.5 L 258 453.5 L 258.5 455 L 257 454.5 L 258 457.5 L 256 457.5 L 249 475.5 L 244 493.5 L 244.5 495 L 243 494.5 L 237 514.5 L 237.5 516 L 236 515.5 L 233 525.5 L 230 530.5 L 220 563.5 L 217 568.5 L 216 575.5 L 216.5 577 L 215 576.5 L 207 601.5 L 202 612.5 L 191 648.5 L 183 668.5 L 182 674.5 L 183 677.5 L 181.5 680 L 180.5 678 Q 179.4 685.9 174 689.5 L 174.5 691 L 5.5 691 L 5 690.5 L 5 683.5 L 4 683.5 L 3.5 685 L 3 683.5 L 4.5 681 Q 5.8 683.3 7 680.5 L 10 675.5 L 10 673.5 L 13 662.5 L 15 660.5 L 27 627.5 L 30 623.5 L 33 612.5 L 36 608.5 L 40 596.5 Q 47.7 585.7 52 571.5 L 60 557.5 L 61 552.5 L 60.5 551 L 62 551.5 L 83 511.5 L 82.5 510 Q 83.8 512.3 85 509.5 L 86 506.5 L 85.5 505 Q 86.8 507.3 88 504.5 L 87.5 503 L 86 503.5 L 89 502.5 L 88 500.5 L 91 499.5 L 92 496.5 L 90 496.5 L 94 494.5 L 93.5 493 L 92 493.5 L 96 491.5 L 95.5 490 L 94 490.5 Q 95.3 487.7 96.5 490 L 101 485.5 L 101 483.5 L 117 459.5 L 115 459.5 Q 116.3 456.8 117.5 459 L 122 454.5 L 143 425.5 L 142.5 424 L 143.5 425 L 148 420.5 L 158 407.5 Q 155.8 406.3 158.5 405 L 160.5 405 L 166 400.5 L 174.5 390 Q 176.8 390.8 176 388.5 L 183 382.5 L 185 379.5 Q 182.3 377.8 186.5 376 L 188.5 377 L 213 354.5 Q 210.8 353.3 213.5 352 Q 215 354.5 216.5 351 L 219 349.5 L 218.5 348 L 220.5 348 L 240 333.5 L 239.5 332 L 241.5 333 L 257.5 321 L 277 309.5 L 276.5 308 L 278.5 308 L 286.5 305 L 303.5 295 L 303.5 297 Q 305.8 296.3 305 298.5 L 306 298.5 L 306.5 297 L 308 299.5 L 306 299.5 L 321 329.5 L 328 339.5 L 336 357.5 L 341.5 365 L 343 364.5 L 342 366.5 L 344 366.5 L 343 369.5 L 346.5 374 L 348 373.5 L 347 375.5 L 349 375.5 L 348 377.5 L 377 432.5 L 382.5 440 L 384 440.5 L 384 442.5 Q 388.4 456.1 396.5 466 L 398 465.5 L 397 467.5 L 399 467.5 L 398 469.5 L 403.5 479 L 405 478.5 L 404 481.5 L 409.5 490 L 411 489.5 L 410 491.5 L 417.5 504 L 419 503.5 L 418 506.5 L 423.5 516 L 425 515.5 L 424 517.5 L 427.5 523 L 429 522.5 L 428 524.5 L 440.5 547 L 442 546.5 L 441 549.5 L 445.5 556 L 447 555.5 L 446 557.5 L 449.5 563 L 451 562.5 L 451 564.5 L 451.5 566 L 453 565.5 L 452.5 567 L 456 569.5 L 460 576 L 463 577.5 L 464.5 580 L 467.5 582 L 479.5 590 L 489.5 594 L 506.5 597 L 509.5 596 L 519.5 597 L 523.5 595 L 535.5 593 L 553 583 L 555.5 579 L 558 577.5 L 565.5 569 Q 567.8 569.8 567 567.5 L 569 564 Q 571.7 565.1 571 562.5 L 578 552.5 L 580 545.5 L 589 528.5 L 589 525.5 L 595 510.5 L 596 503.5 L 601 493.5 Q 603.1 480.1 609 470.5 L 610 463.5 L 613 459.5 L 614 453.5 L 623 430.5 L 628 422.5 L 642 391.5 L 671 349 Q 673.7 350.1 673 347.5 L 687.5 332 Q 689.8 332.8 689 330.5 L 696 326 Q 694.9 323.3 697.5 324 L 709.5 313 L 725.5 302 L 758.5 284 L 809.5 266 L 818.5 265 L 836.5 260 L 838.5 260 L 853.5 257 L 873.5 256 L 875.5 255 L 877.5 255 L 897.5 254 L 898.5 253 Z " fill="url(#nf-light)" class="nf-fill"/>
  </g>
</svg>